# xmcd
# 
# Track frame offsets:
#     182
#     26660
#     66730
#     81665
#     116870
#     134597
#     173122
#     213770
#     258005
#     286030
# 
# Disc length: 4135
# 
# Revision: 5
# Processed by: cddbd v1.5.2PL0 Copyright (c) Steve Scherf et al.
# Submitted via: fre:ac v1.0.31
# 
DISCID=9710250a
DTITLE=Stan Getz - Verve Jazz Masters 08 - Stan Getz
DYEAR=1993
DGENRE=Jazz
TTITLE0=Desafinado
TTITLE1=S-H-I-N-E
TTITLE2=Body and Soul
TTITLE3=Gladys
TTITLE4=It Never Entered My Mind
TTITLE5=Jordu
TTITLE6=Windows
TTITLE7=Dynasty
TTITLE8=Her
TTITLE9=Girl From Ipanema
EXTD=YEAR: 1993
EXTT0=
EXTT1=
EXTT2=
EXTT3=
EXTT4=
EXTT5=
EXTT6=
EXTT7=
EXTT8=
EXTT9=
PLAYORDER=
